<svg width = "200" height="200" style="background-color:black">

	<!-- B OUTLINE --> 
	<path class="outline" d="
		M 20 20
	    L 100 20
	    L 110 47
	    L 100 75
	    L 120 112
	    L 100 150
	    L 20 150
		 z"/>


	<circle class="top" cx="100" cy="48" r="28" fill="black" />

	<circle class="bottom" cx="100" cy="112" r="37" fill="black" />


	<!-- INSIDE OF THE B -->

	<!-- top inside -->
	<path d="
		M 40 40
	    L 85 40
	    L 90 50
	    L 85 60
	    L 40 60
		 z"/>

	<circle class="top-inside" cx="85" cy="50" r="10" />

	<!-- bottom inside -->
	<path d="
		M 40 97
	    L 85 97
	    L 90 110
	    L 85 123
	    L 40 123
		 z"/>

	<circle class="bottom-inside" cx="85" cy="110" r="13" />

	<!-- TODO: slime -->

	<!-- last slime drip drop -->
	<circle cx="100" cy="150" r="13" fill="lime"/>
	<circle cx="100" cy="163" r="7" fill="lime"/>
	<circle cx="100" cy="169" r="6" fill="lime"/>

	<polygon points="100,178 107.5,190 92.5,190" style="fill:lime;" />

	<circle cx="100" cy="190" r="6.5" fill="lime"/>


	<!-- first slime drop -->
	
	<circle cx="30" cy="150" r="7" fill="lime"/>
	<circle cx="30" cy="157" r="6" fill="lime"/>
	<circle cx="30" cy="163" r="8" fill="lime"/>

	<!-- second slime drop -->
	
	<circle cx="50" cy="150" r="9" fill="lime"/>
	<circle cx="50" cy="157" r="6" fill="lime"/>
	<circle cx="50" cy="163" r="5" fill="lime"/>
	<circle cx="50" cy="166" r="5" fill="lime"/>
	<circle cx="50" cy="170" r="4.5" fill="lime"/>
	<circle cx="50" cy="173" r="4.5" fill="lime"/>
	<circle cx="50" cy="177" r="4" fill="lime"/>
	<circle cx="50" cy="179" r="6" fill="lime"/>
	<circle cx="50" cy="183" r="9" fill="lime"/>


	<!-- third slime drop (parent) -->
	<circle cx="73" cy="150" r="13" fill="lime"/>
	<!-- right child slime drop --> 
	<circle cx="78" cy="160" r="5" fill="lime"/>
	<circle cx="78" cy="163" r="5" fill="lime"/>
	<circle cx="78" cy="166" r="4" fill="lime"/>
	<circle cx="78" cy="170" r="3" fill="lime"/>
	<circle cx="78" cy="172" r="2.5" fill="lime"/>
	<circle cx="78" cy="174" r="2" fill="lime"/>

	<circle cx="78" cy="176" r="2" fill="lime"/>
	<circle cx="78" cy="178" r="2.5" fill="lime"/>
	<circle cx="78" cy="180" r="3" fill="lime"/>
	<circle cx="78" cy="183" r="3.5" fill="lime"/>
	<circle cx="78" cy="186" r="4" fill="lime"/>
	<circle cx="78" cy="189" r="5" fill="lime"/>
	<circle cx="78" cy="193" r="7" fill="lime"/>
	<circle cx="78" cy="198" r="8" fill="lime"/>

	<!-- left child slime drop -->
	<circle cx="68" cy="160" r="5" fill="lime"/>
	<circle cx="68" cy="163" r="5" fill="lime"/>
	<circle cx="68" cy="166" r="4" fill="lime"/>
	<circle cx="68" cy="170" r="3" fill="lime"/>
	<circle cx="68" cy="172" r="2.5" fill="lime"/>
	<circle cx="68" cy="174" r="2" fill="lime"/>

    </a> <!-- end of web link -->

    <a href="https://i6.cims.nyu.edu/~bjr366/me/about-me.html">
	<!-- text initials -->
	<text x="170" y="20" class="initials" fill="white" >BR</text>
    </a>
</svg>